name analog
datacolumns 19
datarows 18
range 0.246 0.2545
endheader
time	ground_force_vx	ground_force_vy	ground_force_vz	ground_force_px	ground_force_py	ground_force_pz	l_ground_force_vx	l_ground_force_vy	l_ground_force_vz	l_ground_force_px	l_ground_force_py	l_ground_force_pz	ground_torque_x	ground_torque_y	ground_torque_z	l_ground_torque_x	l_ground_torque_y	l_ground_torque_z
0.246	-0.0	-0.0	-0.0	-25.33672142028809	99.77294921875	-548.988037109375	-25.372699737548828	-74.47228240966797	-512.5462036132812	-0.0	-0.0	-0.0	-0.0	-0.0	-0.0	106886.859375	-9695.1337890625	-4676.51123046875
0.2465	-0.0	-0.0	-0.0	-19.822843551635746	97.7773895263672	-547.7767944335938	-18.91446685791016	-77.775634765625	-536.6417236328125	-0.0	-0.0	-0.0	-0.0	-0.0	-0.0	113028.1953125	-14834.853515625	-2999.981201171875
0.247	-0.0	-0.0	-0.0	-14.505011558532717	95.33326721191406	-544.3221435546875	-14.195037841796877	-81.81912231445312	-554.4475708007812	-0.0	-0.0	-0.0	-0.0	-0.0	-0.0	117146.7578125	-18664.822265625	-1603.5106201171875
0.2475	-0.0	-0.0	-0.0	-9.490947723388672	92.6774444580078	-537.821044921875	-12.01052951812744	-84.69898986816406	-561.2286987304688	-0.0	-0.0	-0.0	-0.0	-0.0	-0.0	118961.1015625	-21730.775390625	-855.12158203125
0.248	-0.0	-0.0	-0.0	-3.712448120117188	89.41820526123047	-531.3187866210938	-11.796618461608888	-86.2522964477539	-557.5950927734375	-0.0	-0.0	-0.0	-0.0	-0.0	-0.0	118834.0	-24231.802734375	-553.4100341796875
0.2485	-0.0	-0.0	-0.0	0.4802646040916443	86.13904571533203	-518.5504760742188	-12.89943504333496	-87.17350769042969	-547.2724609375	-0.0	-0.0	-0.0	-0.0	-0.0	-0.0	116766.65625	-25668.904296875	-920.4961547851562
0.249	-0.0	-0.0	-0.0	5.11636209487915	83.5886459350586	-509.9918212890625	-14.423388481140137	-87.36585998535156	-533.9342651367188	-0.0	-0.0	-0.0	-0.0	-0.0	-0.0	114179.7109375	-26769.306640625	-1147.4874267578125
0.2495	-0.0	-0.0	-0.0	9.170228004455566	80.87509155273438	-497.27734375	-15.255434036254885	-87.56324768066406	-518.5621948242188	-0.0	-0.0	-0.0	-0.0	-0.0	-0.0	111537.0703125	-28179.294921875	-1302.5230712890625
0.25	-0.0	-0.0	-0.0	12.898493766784668	77.83270263671875	-484.3096618652344	-15.380576133728027	-87.13693237304688	-503.8380737304688	-0.0	-0.0	-0.0	-0.0	-0.0	-0.0	108773.5390625	-29539.798828125	-1516.2734375
0.2505	-0.0	-0.0	-0.0	16.99825096130371	74.73219299316406	-473.1288146972656	-13.395328521728516	-86.0069580078125	-492.7981567382813	-0.0	-0.0	-0.0	-0.0	-0.0	-0.0	106615.8515625	-30816.70703125	-1331.599609375
0.251	-0.0	-0.0	-0.0	20.20954132080078	71.84703826904297	-463.8570861816406	-11.391955375671388	-84.42083740234375	-483.5168762207031	-0.0	-0.0	-0.0	-0.0	-0.0	-0.0	104912.4765625	-32967.21875	-1167.8963623046875
0.2515	-0.0	-0.0	-0.0	23.651107788085938	68.77970123291016	-453.4256591796875	-7.791951179504394	-82.86027526855469	-478.7443237304688	-0.0	-0.0	-0.0	-0.0	-0.0	-0.0	104517.5390625	-34909.5859375	-743.4064331054688
0.252	-0.0	-0.0	-0.0	24.735092163085938	63.9156494140625	-444.5412902832031	-4.173736572265625	-80.99529266357422	-475.6007385253906	-0.0	-0.0	-0.0	-0.0	-0.0	-0.0	104513.484375	-37453.71484375	-238.8595123291016
0.2525	-0.0	-0.0	-0.0	25.70656394958496	56.0588493347168	-438.3708190917969	1.4847854375839231	-78.29479217529297	-476.4450378417969	-0.0	-0.0	-0.0	-0.0	-0.0	-0.0	104851.0390625	-40012.30078125	543.2376708984375
0.253	-0.0	-0.0	-0.0	24.749048233032227	44.97480392456055	-430.1528625488281	7.208377361297607	-76.66322326660156	-478.53955078125	-0.0	-0.0	-0.0	-0.0	-0.0	-0.0	105391.3125	-42270.0703125	1397.0101318359375
0.2535	-0.0	-0.0	-0.0	25.235595703125	43.05546951293945	-422.9813537597656	11.876773834228516	-75.42672729492188	-480.08349609375	-0.0	-0.0	-0.0	-0.0	-0.0	-0.0	106508.71875	-44646.96484375	1981.311279296875
0.254	-0.0	-0.0	-0.0	24.25956344604492	45.10567474365234	-419.8031921386719	16.629087448120117	-73.45156860351562	-479.66021728515625	-0.0	-0.0	-0.0	-0.0	-0.0	-0.0	107257.421875	-46813.26171875	2626.97265625
0.2545	-0.0	-0.0	-0.0	24.32321548461914	50.42876434326172	-415.4905395507813	20.32784080505371	-71.02946472167969	-480.23236083984375	-0.0	-0.0	-0.0	-0.0	-0.0	-0.0	107510.2734375	-48753.46484375	3238.537841796875
